<?xml version="1.0" encoding="UTF-8"?>
<svg xmlns="http://www.w3.org/2000/svg" xmlns:xlink="http://www.w3.org/1999/xlink" width="250px" height="75px" viewBox="0 0 250 75" version="1.1">
<g id="surface1">
<path style=" stroke:none;fill-rule:nonzero;fill:rgb(33.333333%,33.333333%,33.333333%);fill-opacity:1;" d="M 20.398438 20 L 0 20 L 0 1.351562 L 63.175781 1.351562 L 63.175781 20 L 42.800781 20 L 42.800781 74.125 L 20.300781 74.125 Z M 20.398438 20 "/>
<path style=" stroke:none;fill-rule:nonzero;fill:rgb(33.333333%,33.333333%,33.333333%);fill-opacity:1;" d="M 66.648438 1.351562 L 127.976562 1.351562 L 127.976562 20 L 89.074219 20 L 89.074219 29.074219 L 127.976562 29.074219 L 127.976562 46.398438 L 89.074219 46.398438 L 89.074219 55.476562 L 128 55.476562 L 128 74.125 L 66.648438 74.125 Z M 66.648438 1.351562 "/>
<path style=" stroke:none;fill-rule:nonzero;fill:rgb(33.333333%,33.333333%,33.333333%);fill-opacity:1;" d="M 131.75 1.351562 L 168.550781 1.351562 C 192.800781 1.351562 201.351562 19.300781 201.351562 37.625 C 201.351562 59.949219 189.550781 74.125 164.175781 74.125 L 131.675781 74.125 Z M 154.25 55.476562 L 163.023438 55.476562 C 176.976562 55.476562 179.023438 44.148438 179.023438 37.324219 C 178.949219 32.75 177.5 20 161.300781 20 L 154.175781 20 Z M 154.25 55.476562 "/>
<path style=" stroke:none;fill-rule:nonzero;fill:rgb(33.333333%,33.333333%,33.333333%);fill-opacity:1;" d="M 233.574219 46.074219 L 226.726562 34.75 L 220 46.074219 L 203.648438 46.074219 L 219.226562 23.148438 L 204.226562 1.226562 L 220.648438 1.226562 L 226.726562 12.050781 L 233 1.226562 L 249.425781 1.226562 L 234.425781 23.148438 L 250 46.074219 Z M 233.574219 46.074219 "/>
</g>
</svg>
